<svg xmlns="http://www.w3.org/2000/svg" xmlns:xlink="http://www.w3.org/1999/xlink" viewBox="0 0 61 48.13"><defs><style>.cls-1{fill:none;clip-rule:evenodd;}.cls-2{clip-path:url(#clip-path);}.cls-3,.cls-4{fill:#0286c2;}.cls-3{opacity:0.5;}.cls-5{clip-path:url(#clip-path-2);}.cls-6{clip-path:url(#clip-path-3);}.cls-7{fill:#d7d7d7;}</style><clipPath id="clip-path"><path class="cls-1" d="M23.65,25S31,33.5,34.5,35s3.5,7,6,8,2.65-4,2.65-5.5-.65-2.5-1.65-4-2.75-4.42-3.19-5l15.48-.68S56,27.14,56,25.4a2.58,2.58,0,0,0-2-2.52l-7.06-.09,4-.47a3.13,3.13,0,0,0,1.65-2.84,2.24,2.24,0,0,0-2.11-2.23l-4.06-.63,2.77.07a2.41,2.41,0,0,0,1.67-2.53c0-2.14-2-2.54-3.14-2.54A41.81,41.81,0,0,1,43.15,11s4-.4,4-2.27A2.57,2.57,0,0,0,44.32,6H30.66S26.25,7.05,24.2,8.73H15V25Zm0,0"/></clipPath><clipPath id="clip-path-2"><path class="cls-1" d="M5,29H15V5H5V29Zm0,0"/></clipPath><clipPath id="clip-path-3"><path class="cls-1" d="M10,24a1,1,0,1,1-1,1,1,1,0,0,1,1-1Zm0,0"/></clipPath></defs><title>dislike</title><g id="Layer_2" data-name="Layer 2"><g id="Layer_1-2" data-name="Layer 1"><g class="cls-2"><rect class="cls-3" x="10" y="1" width="51" height="47.13"/></g><path class="cls-4" d="M41.12,44.13a2.65,2.65,0,0,1-1-.21c-1.53-.61-2.23-2.23-3-3.93s-1.51-3.42-3-4.08c-3.29-1.41-9.46-8.24-10.91-9.89H15a1,1,0,0,1-1-1V8.73a1,1,0,0,1,1-1h8.86A22.4,22.4,0,0,1,30.43,5l.23,0H44.32a3.57,3.57,0,0,1,3.82,3.73,2.39,2.39,0,0,1-.93,1.88l.44,0c2.51,0,4.14,1.39,4.14,3.54a3.81,3.81,0,0,1-.63,2.21,3.14,3.14,0,0,1,2.36,3.11,4.18,4.18,0,0,1-.7,2.39H54a3.54,3.54,0,0,1,3,3.52c0,2-1.84,3-2.92,3.39a1,1,0,0,1-.25,0l-13.71.6.62,1c.56.9,1.16,1.85,1.6,2.52,1,1.52,1.82,2.72,1.82,4.55,0,3.34-.61,5.45-1.81,6.26A2.15,2.15,0,0,1,41.12,44.13ZM16,24h7.65a1,1,0,0,1,.75.34c2,2.31,7.8,8.55,10.49,9.7,2.25,1,3.22,3.17,4.08,5.11.58,1.32,1.13,2.57,1.9,2.88.24.1.31,0,.34,0,.45-.3.93-1.87.93-4.6,0-1.17-.48-1.95-1.48-3.45-.45-.68-1.06-1.65-1.63-2.57s-1.3-2.09-1.51-2.35a1,1,0,0,1,.74-1.62l15.32-.67c.34-.13,1.42-.62,1.42-1.44a1.66,1.66,0,0,0-1.12-1.52c-.41,0-7-.09-7-.09a1,1,0,0,1-.1-2l3.79-.44a2.14,2.14,0,0,0,1-1.87,1.2,1.2,0,0,0-1.19-1.23l-4.14-.64a1,1,0,0,1,.18-2l2.6.06a1.48,1.48,0,0,0,.82-1.53c0-1.27-1.16-1.54-2.14-1.54A40.29,40.29,0,0,1,43,12,1,1,0,0,1,43,10c1.4-.14,3.09-.74,3.09-1.28A1.6,1.6,0,0,0,44.32,7H30.78c-.67.17-4.27,1.13-6,2.5a1,1,0,0,1-.63.23H16Z"/><g class="cls-5"><rect class="cls-3" width="20" height="34"/></g><path class="cls-4" d="M15,30H5a1,1,0,0,1-1-1V5A1,1,0,0,1,5,4H15a1,1,0,0,1,1,1V29A1,1,0,0,1,15,30ZM6,28h8V6H6Z"/><g class="cls-6"><rect class="cls-7" x="4" y="19" width="12" height="12"/></g><circle class="cls-4" cx="10" cy="25" r="2"/></g></g></svg>