<svg xmlns="http://www.w3.org/2000/svg" xmlns:xlink="http://www.w3.org/1999/xlink" viewBox="0 0 63.11 56.56"><defs><style>.cls-1,.cls-4,.cls-7{fill:none;}.cls-1{clip-rule:evenodd;}.cls-2{clip-path:url(#clip-path);}.cls-3{fill:#d7d7d7;}.cls-4,.cls-7{stroke:#525252;stroke-width:2px;}.cls-4{stroke-linecap:round;stroke-linejoin:round;}.cls-5{clip-path:url(#clip-path-2);}.cls-6{clip-path:url(#clip-path-3);}.cls-7{stroke-miterlimit:10;}</style><clipPath id="clip-path"><path class="cls-1" d="M22.55,41.56c2.21,0,4-2.24,4-5s-1.79-5-4-5-4,2.24-4,5,1.79,5,4,5Zm0,0"/></clipPath><clipPath id="clip-path-2"><path class="cls-1" d="M41.55,41.56c2.21,0,4-2.24,4-5s-1.79-5-4-5-4,2.24-4,5,1.79,5,4,5Zm0,0"/></clipPath><clipPath id="clip-path-3"><path class="cls-1" d="M8.2,43.31c3.3,5.17,8.22,7.44,13.89,7.93,4.83.41,9.7.3,14.55.31a27.42,27.42,0,0,0,10.18-1.66,16.2,16.2,0,0,0,10.07-11,30.13,30.13,0,0,0,1.2-9.62,16.53,16.53,0,0,0-3-9.43,3.78,3.78,0,0,1-1-2.86,23.69,23.69,0,0,0-.33-5.38A25,25,0,0,0,52,5a21.66,21.66,0,0,0-6.49,2c-2.12,1.22-4.17,2.55-6.27,3.81a1.34,1.34,0,0,1-.85.18,40.16,40.16,0,0,0-13.47,0,1.73,1.73,0,0,1-1.07-.24c-1.11-.67-2.16-1.43-3.28-2.09A24.7,24.7,0,0,0,11.16,5c-.1.22-.18.37-.24.53a30.68,30.68,0,0,0-1.86,8.7,15.94,15.94,0,0,0,0,3.27,1.59,1.59,0,0,1-.35,1.4A16,16,0,0,0,5.94,24a23.44,23.44,0,0,0-.57,10.87A21,21,0,0,0,8.2,43.31ZM20,26.69c2.79-.07,5.59.16,8.38.18,3.08,0,6.16-.07,9.24-.13,1.77,0,3.54-.15,5.31-.18,4.78-.08,7.66,4.39,8.1,7.63a13.69,13.69,0,0,1-.64,6.21,8.44,8.44,0,0,1-5.64,5.54,31.66,31.66,0,0,1-9.34,1.59c-1.31,0-2.63,0-3.94,0a41.61,41.61,0,0,1-12-1.24c-5-1.4-6.8-4.18-7.28-9.27-.3-3.2.34-6.17,2.83-8.45a7.48,7.48,0,0,1,5-1.9Zm0,0"/></clipPath></defs><title>github</title><g id="Layer_2" data-name="Layer 2"><g id="Layer_1-2" data-name="Layer 1"><g class="cls-2"><rect class="cls-3" x="13.55" y="26.56" width="18" height="20"/></g><path class="cls-4" d="M22.55,41.56c2.21,0,4-2.24,4-5s-1.79-5-4-5-4,2.24-4,5,1.79,5,4,5Zm0,0"/><g class="cls-5"><rect class="cls-3" x="32.55" y="26.56" width="18" height="20"/></g><path class="cls-4" d="M41.55,41.56c2.21,0,4-2.24,4-5s-1.79-5-4-5-4,2.24-4,5,1.79,5,4,5Zm0,0"/><g class="cls-6"><rect class="cls-3" width="63.11" height="56.56"/></g><path class="cls-7" d="M8.2,43.31c3.3,5.17,8.22,7.44,13.89,7.93,4.83.41,9.7.3,14.55.31a27.42,27.42,0,0,0,10.18-1.66,16.2,16.2,0,0,0,10.07-11,30.13,30.13,0,0,0,1.2-9.62,16.52,16.52,0,0,0-3-9.43,3.78,3.78,0,0,1-1-2.86,23.69,23.69,0,0,0-.33-5.38A25,25,0,0,0,52,5a21.66,21.66,0,0,0-6.49,2c-2.12,1.22-4.17,2.55-6.27,3.81a1.34,1.34,0,0,1-.85.18,40.16,40.16,0,0,0-13.47,0,1.73,1.73,0,0,1-1.07-.24c-1.11-.67-2.16-1.43-3.28-2.09A24.7,24.7,0,0,0,11.16,5c-.1.21-.18.37-.24.53a30.68,30.68,0,0,0-1.86,8.7,15.94,15.94,0,0,0,0,3.27,1.59,1.59,0,0,1-.35,1.4A16,16,0,0,0,5.94,24a23.44,23.44,0,0,0-.57,10.87A21,21,0,0,0,8.2,43.31ZM20,26.69c2.79-.07,5.59.16,8.38.18,3.08,0,6.16-.07,9.24-.13,1.77,0,3.54-.15,5.31-.18,4.78-.08,7.66,4.39,8.1,7.63a13.69,13.69,0,0,1-.64,6.21,8.45,8.45,0,0,1-5.64,5.54,31.66,31.66,0,0,1-9.34,1.59c-1.31,0-2.63,0-3.94,0a41.61,41.61,0,0,1-12-1.24c-5-1.4-6.8-4.18-7.28-9.27-.3-3.2.34-6.17,2.83-8.45a7.48,7.48,0,0,1,5-1.9Zm0,0"/></g></g></svg>