<svg xmlns="http://www.w3.org/2000/svg" xmlns:xlink="http://www.w3.org/1999/xlink" viewBox="0 0 61 48.13"><defs><style>.cls-1,.cls-4{fill:none;}.cls-1{clip-rule:evenodd;}.cls-2{clip-path:url(#clip-path);}.cls-3{fill:#0286c2;opacity:0.5;}.cls-4{stroke:#0286c2;stroke-linecap:round;stroke-linejoin:round;stroke-width:2px;}.cls-5{clip-path:url(#clip-path-2);}</style><clipPath id="clip-path"><path class="cls-1" d="M23.65,23.1s7.35-8.47,10.85-10,3.5-7,6-8,2.65,4,2.65,5.5-.65,2.5-1.65,4-2.75,4.42-3.19,5l15.48.68S56,21,56,22.73a2.58,2.58,0,0,1-2,2.52l-7.06.09,4,.47a3.13,3.13,0,0,1,1.65,2.84,2.24,2.24,0,0,1-2.11,2.23l-4.06.63,2.77-.07A2.41,2.41,0,0,1,50.79,34c0,2.14-2,2.54-3.14,2.54a41.81,41.81,0,0,0-4.51.63s4,.4,4,2.27a2.57,2.57,0,0,1-2.82,2.73H30.66s-4.41-1.05-6.46-2.73H15V23.1Zm0,0"/></clipPath><clipPath id="clip-path-2"><path class="cls-1" d="M5,19.13H15v24H5v-24Zm0,0"/></clipPath></defs><title>like</title><g id="Layer_2" data-name="Layer 2"><g id="Layer_1-2" data-name="Layer 1"><g class="cls-2"><rect class="cls-3" x="10" width="51" height="47.13"/></g><path class="cls-4" d="M23.65,23.1s7.35-8.47,10.85-10,3.5-7,6-8,2.65,4,2.65,5.5-.65,2.5-1.65,4-2.75,4.42-3.19,5l15.48.68S56,21,56,22.73a2.58,2.58,0,0,1-2,2.52l-7.06.09,4,.47a3.13,3.13,0,0,1,1.65,2.84,2.24,2.24,0,0,1-2.11,2.23l-4.06.63,2.77-.07A2.41,2.41,0,0,1,50.79,34c0,2.14-2,2.54-3.14,2.54a41.81,41.81,0,0,0-4.51.63s4,.4,4,2.27a2.57,2.57,0,0,1-2.82,2.73H30.66s-4.41-1.05-6.46-2.73H15V23.1Zm0,0"/><g class="cls-5"><rect class="cls-3" y="14.13" width="20" height="34"/></g><path class="cls-4" d="M5,19.13H15v24H5v-24Zm0,0,5,5a1,1,0,1,0-1-1,1,1,0,0,0,1,1Zm0,0"/></g></g></svg>