<svg xmlns="http://www.w3.org/2000/svg" xmlns:xlink="http://www.w3.org/1999/xlink" viewBox="0 0 150 61.86"><defs><style>.cls-1{fill:none;clip-rule:evenodd;}.cls-2{clip-path:url(#clip-path);}.cls-3{fill:#03a9f4;}.cls-4{fill:#eee;}.cls-5{clip-path:url(#clip-path-2);}</style><clipPath id="clip-path"><path class="cls-1" d="M34.06,26.65h-7.7l5,15.23L32.62,57.1h12l.94-15.23,4.75-15.23H42.69V22.84H34.06v3.81Zm0,0"/></clipPath><clipPath id="clip-path-2"><path class="cls-1" d="M38.29,20c3.68,0,6.66-3.41,6.66-7.61s-3-7.61-6.66-7.61-6.66,3.41-6.66,7.61,3,7.61,6.66,7.61Zm0,0"/></clipPath></defs><title>logo</title><g id="Layer_2" data-name="Layer 2"><g id="Layer_1-2" data-name="Layer 1"><g class="cls-2"><rect class="cls-3" x="21.59" y="18.08" width="33.47" height="43.78"/></g><path class="cls-4" d="M44.62,58.06h-12a1,1,0,0,1-.95-.88L30.45,42.07l-5-15.12a1,1,0,0,1,.9-1.25H33.1V22.84a1,1,0,0,1,1-1h8.64a1,1,0,0,1,1,1V25.7h6.66a1,1,0,0,1,.91,1.24L46.5,42l-.93,15.11A1,1,0,0,1,44.62,58.06Zm-11.12-1.9H43.72l.89-14.33a1,1,0,0,1,0-.22L49,27.6H42.69a1,1,0,0,1-1-1V23.79H35v2.86a1,1,0,0,1-1,1H27.67l4.62,14a.94.94,0,0,1,0,.22Z"/><rect class="cls-4" x="37.34" y="40.92" width="1.9" height="16.18"/><g class="cls-5"><rect class="cls-3" x="26.87" width="22.84" height="24.74"/></g><path class="cls-4" d="M38.29,20.94c-4.2,0-7.61-3.84-7.61-8.57s3.42-8.57,7.61-8.57,7.61,3.84,7.61,8.57S42.49,20.94,38.29,20.94Zm0-15.23c-3.15,0-5.71,3-5.71,6.66S35.14,19,38.29,19,44,16,44,12.37,41.44,5.71,38.29,5.71Z"/><path class="cls-4" d="M60.42,55.45a1.29,1.29,0,0,1,1.3,1.32,1.23,1.23,0,0,1-.38.91,1.27,1.27,0,0,1-.92.37,9.86,9.86,0,0,1-9.92-9.92,10.31,10.31,0,0,1,1-4.35,1.38,1.38,0,0,1,.77-.67,1.29,1.29,0,0,1,1,0,1.23,1.23,0,0,1,.67.74,1.2,1.2,0,0,1-.09,1,8.11,8.11,0,0,0-.72,3.23A7,7,0,0,0,53.69,51a7.47,7.47,0,0,0,3.88,3.88A7,7,0,0,0,60.42,55.45ZM67.83,41.4a1.4,1.4,0,0,1,.36,1,1.12,1.12,0,0,1-.45.92,1.15,1.15,0,0,1-.85.31,1.34,1.34,0,0,1-1-.4,7.05,7.05,0,0,0-2.45-1.8,7.28,7.28,0,0,0-3-.63,6.84,6.84,0,0,0-2.83.58,8.57,8.57,0,0,0-1.26.67,1.42,1.42,0,0,1-.76.22,1.32,1.32,0,0,1-1.08-.58,1.38,1.38,0,0,1-.22-1,1.19,1.19,0,0,1,.58-.82q.4-.26.81-.49c.27-.15.57-.29.9-.44a10.33,10.33,0,0,1,3.86-.75,10,10,0,0,1,7.36,3.23Z"/><path class="cls-4" d="M78.81,41a1.35,1.35,0,0,1,1,.37,1.22,1.22,0,0,1,.39.9,1.27,1.27,0,0,1-.38.95,1.33,1.33,0,0,1-1,.38H72a1.33,1.33,0,0,1-1-.38,1.27,1.27,0,0,1-.38-.95,1.22,1.22,0,0,1,.39-.9A1.37,1.37,0,0,1,72,41h1v-7.9a1.33,1.33,0,0,1,.37-1,1.22,1.22,0,0,1,.9-.38,1.33,1.33,0,0,1,1.32,1.35V41Zm-1.44,14.5a1.37,1.37,0,0,1,1,.37,1.23,1.23,0,0,1,.41.95,1.19,1.19,0,0,1-.41.91,1.35,1.35,0,0,1-.94.37A4.33,4.33,0,0,1,73,53.74V46.83a1.32,1.32,0,0,1,.37-1,1.22,1.22,0,0,1,.9-.38,1.3,1.3,0,0,1,.93.38,1.28,1.28,0,0,1,.4,1V53.7a1.74,1.74,0,0,0,1.78,1.75Z"/><path class="cls-4" d="M92.17,38.17a9.7,9.7,0,0,1,3.88.79,9.84,9.84,0,0,1,5.27,5.29,9.79,9.79,0,0,1,.77,3.87,9.66,9.66,0,0,1-.78,3.88A10,10,0,0,1,96,57.27a9.65,9.65,0,0,1-3.87.78,9.77,9.77,0,0,1-3.88-.77A9.85,9.85,0,0,1,83,52a9.7,9.7,0,0,1-.78-3.88,9.81,9.81,0,0,1,1.24-4.8,1.29,1.29,0,0,1,.77-.65,1.24,1.24,0,0,1,1,.11,1.22,1.22,0,0,1,.63.79,1.49,1.49,0,0,1-.09,1,7.18,7.18,0,0,0-.36,6.4,7.47,7.47,0,0,0,3.9,3.88,7.29,7.29,0,0,0,5.72,0A7.48,7.48,0,0,0,98.9,51a7.27,7.27,0,0,0,0-5.72,7.57,7.57,0,0,0-1.57-2.32A7.5,7.5,0,0,0,95,41.36a7,7,0,0,0-2.85-.59,6.9,6.9,0,0,0-3.55.94,1.27,1.27,0,0,1-1,.11,1.3,1.3,0,0,1-.79-.65,1.32,1.32,0,0,1-.13-1,1.2,1.2,0,0,1,.63-.77A10.06,10.06,0,0,1,92.17,38.17Z"/><path class="cls-4" d="M105.36,38.17a1.29,1.29,0,0,1,1.32,1.3V56.71a1.32,1.32,0,0,1-.37,1,1.28,1.28,0,0,1-.95.38,1.22,1.22,0,0,1-.9-.38,1.32,1.32,0,0,1-.37-1V39.47a1.27,1.27,0,0,1,.37-.92A1.22,1.22,0,0,1,105.36,38.17Zm8.69,0a1.3,1.3,0,0,1,1.3,1.3,1.31,1.31,0,0,1-.38,1,1.25,1.25,0,0,1-.92.38,7.38,7.38,0,0,0-3.91,1.12,1.07,1.07,0,0,1-.67.18,1.22,1.22,0,0,1-1.12-.59,1.3,1.3,0,0,1-.2-1,1.28,1.28,0,0,1,.61-.83A9.75,9.75,0,0,1,114,38.12Z"/><path class="cls-4" d="M117.78,53.74a2.15,2.15,0,0,1,1.55.63,2.12,2.12,0,0,1,0,3.05,2.15,2.15,0,0,1-1.55.63,2.16,2.16,0,1,1,0-4.31Z"/><path class="cls-4" d="M125.66,32.78a1.81,1.81,0,0,1,1.32.56,1.87,1.87,0,0,1,.56,1.37,1.89,1.89,0,0,1-.56,1.35,1.78,1.78,0,0,1-1.32.58,1.82,1.82,0,0,1-1.37-.58,1.88,1.88,0,0,1-.56-1.35,1.92,1.92,0,0,1,1.93-1.93Zm0,5.3a1.23,1.23,0,0,1,.91.38,1.32,1.32,0,0,1,.37,1V49.66a1.35,1.35,0,0,1-.37.94,1.19,1.19,0,0,1-.91.4,1.24,1.24,0,0,1-.95-.4,1.34,1.34,0,0,1-.37-.94V39.42a1.32,1.32,0,0,1,.37-1A1.28,1.28,0,0,1,125.64,38.08Zm0,15.4a1.23,1.23,0,0,1,.91.38,1.27,1.27,0,0,1,.37.92v1.93a1.32,1.32,0,0,1-.37,1,1.23,1.23,0,0,1-.91.38,1.28,1.28,0,0,1-.95-.38,1.32,1.32,0,0,1-.37-1V54.78a1.26,1.26,0,0,1,.37-.92A1.28,1.28,0,0,1,125.64,53.48Z"/><path class="cls-4" d="M140.08,38.17A9.7,9.7,0,0,1,144,39a9.84,9.84,0,0,1,5.27,5.29,9.79,9.79,0,0,1,.77,3.87,9.66,9.66,0,0,1-.78,3.88,10,10,0,0,1-5.29,5.29,9.65,9.65,0,0,1-3.87.78,9.77,9.77,0,0,1-3.88-.77A9.85,9.85,0,0,1,130.9,52a9.7,9.7,0,0,1-.78-3.88,9.81,9.81,0,0,1,1.24-4.8,1.29,1.29,0,0,1,.77-.65,1.24,1.24,0,0,1,1,.11,1.22,1.22,0,0,1,.63.79,1.49,1.49,0,0,1-.09,1,7.18,7.18,0,0,0-.36,6.4,7.47,7.47,0,0,0,3.9,3.88,7.29,7.29,0,0,0,5.72,0,7.48,7.48,0,0,0,3.9-3.9,7.27,7.27,0,0,0,0-5.72,7.57,7.57,0,0,0-1.57-2.32,7.5,7.5,0,0,0-2.31-1.58,7,7,0,0,0-2.85-.59,6.9,6.9,0,0,0-3.55.94,1.27,1.27,0,0,1-1,.11,1.3,1.3,0,0,1-.79-.65,1.32,1.32,0,0,1-.13-1,1.2,1.2,0,0,1,.63-.77A10.06,10.06,0,0,1,140.08,38.17Z"/><path class="cls-4" d="M26.23,44.65v12.1a1.26,1.26,0,0,1-.37.92,1.22,1.22,0,0,1-.9.38,1.29,1.29,0,0,1-1.32-1.3V45.33a4.45,4.45,0,0,0-.36-1.78,4.66,4.66,0,0,0-2.45-2.45,4.4,4.4,0,0,0-1.77-.36,4.55,4.55,0,0,0-1.52.27,1.21,1.21,0,0,1-1-.07,1.3,1.3,0,0,1-.67-.78,1,1,0,0,1,0-1,1.39,1.39,0,0,1,.76-.66,7.36,7.36,0,0,1,2.38-.4,6.91,6.91,0,0,1,2.47.44C23.34,39.34,26.23,41.18,26.23,44.65Z"/><path class="cls-4" d="M7.24,38.15A7.09,7.09,0,0,1,10,38.7a6.94,6.94,0,0,1,2.28,1.55,7.74,7.74,0,0,1,1.54,2.31,6.88,6.88,0,0,1,.58,2.8V56.75a1.26,1.26,0,0,1-.37.92,1.28,1.28,0,0,1-.95.38,1.22,1.22,0,0,1-.9-.38,1.27,1.27,0,0,1-.38-.92V45.33a4.42,4.42,0,0,0-.36-1.78A4.68,4.68,0,0,0,9,41.11a4.44,4.44,0,0,0-1.78-.36A5.35,5.35,0,0,0,6,40.88a4.58,4.58,0,0,0-2.46,1.64,4.44,4.44,0,0,0-1,2.81V56.75a1.27,1.27,0,0,1-.38.92,1.22,1.22,0,0,1-.9.38,1.29,1.29,0,0,1-.93-.38,1.23,1.23,0,0,1-.4-.92V45.36A7.07,7.07,0,0,1,.4,43a7.26,7.26,0,0,1,1.12-2.06,7.51,7.51,0,0,1,1.7-1.59,7,7,0,0,1,2.15-1A8.87,8.87,0,0,1,7.24,38.15Z"/><path class="cls-4" d="M2.6,45.33V56.75a1.29,1.29,0,0,1-1.32,1.3,1.22,1.22,0,0,1-.9-.38A1.26,1.26,0,0,1,0,56.75V39.49a1.26,1.26,0,0,1,.37-.92,1.22,1.22,0,0,1,.9-.38,1.29,1.29,0,0,1,.95.38,1.23,1.23,0,0,1,.37.9l0,.31"/></g></g></svg>