<svg xmlns="http://www.w3.org/2000/svg" viewBox="0 0 93.26 200"><defs><style>.cls-1{fill:#fff;}</style></defs><title>urinal</title><g id="Layer_2" data-name="Layer 2"><g id="Layer_2-2" data-name="Layer 2"><path class="cls-1" d="M46.74,200a11.83,11.83,0,0,1-6.12-1.55,5.68,5.68,0,0,1-3-5V188H34.18v-6.43h1.5v4.93h3.48v7c0,3.45,3.93,5,7.58,5s7.58-1.57,7.58-5v-6.73H57.7V181.6h1.5v6.65H55.82v5.23C55.82,198,51.12,200,46.74,200Z"/><path class="cls-1" d="M76.17,51.81H17A22.14,22.14,0,0,0,9.21,54.2C4.09,57,1.5,61.38,1.5,67.35V157.8c0,8.86,7.56,14.2,13.9,17.11,8.23,3.78,19.32,5.86,31.23,5.86s23-2.08,31.23-5.86c6.34-2.91,13.9-8.25,13.9-17.11V67.35c0-6-2.61-10.43-7.75-13.17A21.94,21.94,0,0,0,76.17,51.81ZM85,135.08c0,8.45-4.18,15.53-12.09,20.48-6.93,4.34-16.25,6.73-26.23,6.73s-19.3-2.39-26.23-6.73c-7.91-5-12.09-12-12.09-20.48V72A9.75,9.75,0,0,1,18,62.27H75.22A9.75,9.75,0,0,1,85,72Z"/><path class="cls-1" d="M76.22,50.31H17c-.17,0-17,1.35-17,17V157.8c0,7.64,5.11,14,14.77,18.47,8.42,3.87,19.73,6,31.86,6s23.44-2.13,31.86-6c9.66-4.44,14.77-10.83,14.77-18.47V67.35C93.26,51.67,76.44,50.33,76.22,50.31ZM92.51,157.8c0,31.63-91.76,31.63-91.76,0V67.35C.75,52.18,17,51.06,17,51.06H76.22s16.29,1.12,16.29,16.29Z"/><path class="cls-1" d="M76.22,51.06H17S.75,52.18.75,67.35V157.8c0,31.63,91.76,31.63,91.76,0V67.35C92.51,52.18,76.22,51.06,76.22,51.06ZM91.76,67.35V157.8c0,8.86-7.56,14.2-13.9,17.11-8.23,3.78-19.32,5.86-31.23,5.86s-23-2.08-31.23-5.86C9.06,172,1.5,166.66,1.5,157.8V67.35c0-6,2.59-10.4,7.71-13.15A22.14,22.14,0,0,1,17,51.81H76.17A21.94,21.94,0,0,1,84,54.18C89.15,56.93,91.76,61.36,91.76,67.35Z"/><path class="cls-1" d="M56.49,51.81H36.76V42.49H56.49Zm-18.23-1.5H55V44H38.26Z"/><path class="cls-1" d="M53,9.32H40.26V0H53ZM41.76,7.82H51.5V1.5H41.76Z"/><rect class="cls-1" x="43.26" y="8.57" width="1.5" height="34.68"/><rect class="cls-1" x="48.5" y="8.57" width="1.5" height="34.68"/></g></g></svg>